<svg id="Layer_1" data-name="Layer 1" xmlns="http://www.w3.org/2000/svg" viewBox="0 0 3230.88 2465.15"><defs><style>.cls-1{opacity:0.2;}.cls-2{fill:#000072;}.cls-3{fill:#ce4d53;}.cls-4{opacity:0.35;}.cls-14,.cls-5{fill:#fff;}.cls-6{opacity:0.3;}.cls-7{opacity:0.5;}.cls-8{fill:#303030;}.cls-9{fill:none;stroke-width:31.47px;}.cls-14,.cls-9{stroke:#000072;stroke-linecap:round;stroke-miterlimit:10;}.cls-10{fill:#ffcfae;}.cls-11{fill:#adb9c4;}.cls-12{fill:#fcfcfc;}.cls-13{fill:#cc1746;}.cls-14{stroke-width:0;}.cls-15{fill:#ff4aa1;}.cls-16{fill:#ff6f48;}.cls-17{fill:#ffab91;}.cls-18{fill:#a33d47;}.cls-19{opacity:0.6;}.cls-20{opacity:0.29;}.cls-21{fill:#218db7;}.cls-22{fill:#fbf6f2;}</style></defs><g class="cls-1"><path class="cls-2" d="M3615.44,3167c0,43.32-723.26,78.44-1615.44,78.44S384.56,3210.3,384.56,3167c0-13.17,67.16-25.62,185.73-36.56H3429.71C3548.28,3141.36,3615.44,3153.81,3615.44,3167Z" transform="translate(-384.56 -780.27)"/></g><path class="cls-2" d="M1784.24,3135.29h-281a15.74,15.74,0,0,1,0-31.48H1804.4l-7.87,31.47Z" transform="translate(-384.56 -780.27)"/><path class="cls-3" d="M2648.9,3119.55h280.95a191.11,191.11,0,0,0,170.82-276.78l-155.76-310.52A402.64,402.64,0,0,0,2640.38,2314l-274.7-3.81h-6.75L2084.22,2314a402.61,402.61,0,0,0-304.52,218.27l-155.77,313v273.89h358.92" transform="translate(-384.56 -780.27)"/><g class="cls-4"><path class="cls-5" d="M2833.82,2927H2635.88v-57.5h255.44A57.5,57.5,0,0,1,2833.82,2927Z" transform="translate(-384.56 -780.27)"/></g><g class="cls-6"><path class="cls-2" d="M3121,2928.44a191.13,191.13,0,0,1-191.1,191.1h-281l-666.07-.35H1623.92V3024h358.92l666.07.39h281a191.11,191.11,0,0,0,177.38-120,200.6,200.6,0,0,0,7.71-23.56A191,191,0,0,1,3121,2928.44Z" transform="translate(-384.56 -780.27)"/></g><g class="cls-7"><path class="cls-5" d="M3121,2928.44a188.13,188.13,0,0,1-1.77,25.76,191.23,191.23,0,0,0-18.52-59.75l-155.78-310.53a402.22,402.22,0,0,0-54.57-82c-74.49-86.65-183.94-135.37-298.2-137l-226.44-3.15h-6.77L2132.47,2365c-114.26,1.59-223.7,50.31-298.2,137a402.22,402.22,0,0,0-54.57,82l-155.78,313v-51.69l155.78-313a402.47,402.47,0,0,1,54.58-82c74.5-86.65,183.94-135.38,298.21-137l226.42-3.15h6.77l226.42,3.15c114.27,1.59,223.72,50.32,298.21,137a402.47,402.47,0,0,1,54.58,82l155.78,310.49A191.09,191.09,0,0,1,3121,2928.44Z" transform="translate(-384.56 -780.27)"/></g><path class="cls-8" d="M2929.85,3135.28H2648.9a15.74,15.74,0,0,1,0-31.47h280.95a175.38,175.38,0,0,0,175.37-175.36,176.3,176.3,0,0,0-18.61-78.63l-155.77-310.51a386.67,386.67,0,0,0-291.66-209.61l-273.72-3.8h-6.53L2132.76,2329c-111.58,1.55-216,49.48-286.55,131.51a387,387,0,0,0-52.45,78.76L1639.67,2849v254.45h343.18a15.74,15.74,0,0,1,0,31.48H1608.2V2841.59l157.41-316.35a419.15,419.15,0,0,1,56.73-85.21c76.4-88.86,189.39-140.78,310-142.45l233.36-3.15,275.9,3.83,1,.13A418.14,418.14,0,0,1,2959,2525.2l155.77,310.51a207.89,207.89,0,0,1,22,92.74,206.85,206.85,0,0,1-206.84,206.83Z" transform="translate(-384.56 -780.27)"/><path class="cls-9" d="M1813.13,2532.25" transform="translate(-384.56 -780.27)"/><path class="cls-10" d="M1849.71,1411.39H2071.3a0,0,0,0,1,0,0v124.82A110.78,110.78,0,0,1,1960.51,1647h0a110.78,110.78,0,0,1-110.78-110.78V1411.39A0,0,0,0,1,1849.71,1411.39Z"/><path class="cls-8" d="M2345.06,2443a126.67,126.67,0,0,1-126.52-126.53V2175.93h253v140.54A126.67,126.67,0,0,1,2345.06,2443Zm-95-235.6v109.07a95,95,0,0,0,190.1,0V2207.4Z" transform="translate(-384.56 -780.27)"/><circle class="cls-10" cx="1628.18" cy="1136.88" r="118.42"/><g class="cls-6"><path class="cls-2" d="M2131.16,1917.16a118.43,118.43,0,1,1-232.3-32.57,118.46,118.46,0,0,0,227.76,0A118.52,118.52,0,0,1,2131.16,1917.16Z" transform="translate(-384.56 -780.27)"/></g><path class="cls-8" d="M2012.74,2051.3c-74,0-134.16-60.18-134.16-134.15S1938.76,1783,2012.74,1783s134.15,60.18,134.15,134.16S2086.71,2051.3,2012.74,2051.3Zm0-236.83a102.68,102.68,0,1,0,102.68,102.68A102.8,102.8,0,0,0,2012.74,1814.47Z" transform="translate(-384.56 -780.27)"/><path d="M2714.79,1694.8c-116,35.86-252.53-83.13-254.83-72.71-4.34,19.51,20,42.49,35.9,52.4a10.64,10.64,0,0,1,4.57,12.41,10.46,10.46,0,0,1-8.57,7.38c-69.92,10.88-210.75,176.14-229,250.6h-244s-123-278.82-78.13-454.78c13.49-52.83,56.43-91.17,135.47-63.82,0,0,33.42-49.72,89.63-99.48,91.41-80.88,243-161.79,408.74-28.57,177.13,142.39,240.48,138,240.48,138S2865.67,1648.14,2714.79,1694.8Z" transform="translate(-384.56 -780.27)"/><g class="cls-4"><path class="cls-5" d="M2497.56,1691.53a10.42,10.42,0,0,1-5.7,2.75,82.44,82.44,0,0,0-21.56,7c-7.52-9.4-12.49-20-10.34-29.73C2460.7,1668.27,2474.87,1677.93,2497.56,1691.53Z" transform="translate(-384.56 -780.27)"/><path class="cls-2" d="M2469.52,1704.64l-1.33-1.65c-9.2-11.5-13-22.56-10.86-32a3.45,3.45,0,0,1,2-2.46c3.2-1.37,8.13,1.52,26.47,12.73,4,2.43,8.36,5.11,13.12,8l3,1.82-2.56,2.45a13.26,13.26,0,0,1-7.15,3.48,79.29,79.29,0,0,0-20.84,6.79Zm-7.23-30.65c-1,8.55,3.9,17.42,8.84,24a82,82,0,0,1,20.31-6.34c.26,0,.52-.1.77-.16q-4.92-3-9.2-5.6C2474.23,1680.49,2465.86,1675.38,2462.29,1674Z" transform="translate(-384.56 -780.27)"/></g><g class="cls-4"><path class="cls-5" d="M2714.79,1744.27c-79.26,24.51-168.18-23.32-217.23-52.74a10.86,10.86,0,0,0-1.7-17c-15.9-9.91-40.24-32.89-35.9-52.4,2.3-10.42,138.87,108.57,254.83,72.71,79.57-24.6,103.09-95.14,107.57-156.34C2826.82,1604.4,2817.39,1712.55,2714.79,1744.27Z" transform="translate(-384.56 -780.27)"/><path class="cls-2" d="M2667.8,1753.83c-63,0-126.13-32.69-171.62-60l-3.07-1.84,2.6-2.45a8.16,8.16,0,0,0-1.27-12.77c-17.45-10.88-41.73-34.57-37.11-55.28a3.43,3.43,0,0,1,2-2.46c3.22-1.36,8.13,1.52,26.46,12.72,46.2,28.23,142.35,87,228.18,60.44,79.82-24.67,101.53-97.33,105.68-153.94h5.39c4.32,63.92-4.15,176-109.47,208.57l-.8-2.58.8,2.58A161.14,161.14,0,0,1,2667.8,1753.83Zm-166.19-63c56.13,33.41,138.12,73.85,212.38,50.88,84.77-26.21,104.57-106.4,106.38-168.47-10.29,50.4-37.76,103.45-104.78,124.17-88.17,27.26-185.72-32.35-232.6-61-8.78-5.37-17.14-10.47-20.7-11.86-2.09,17.49,20,38.34,35,47.68a13.31,13.31,0,0,1,5.72,15.51A13.49,13.49,0,0,1,2501.61,1690.8Z" transform="translate(-384.56 -780.27)"/></g><g class="cls-6"><path class="cls-2" d="M2500.43,1686.9a10.46,10.46,0,0,1-8.57,7.38c-69.92,10.88-210.75,176.14-229,250.6H2059.65c-62.11-171.39-15.59-358.77-15.59-358.77S2380.33,1660.69,2500.43,1686.9Z" transform="translate(-384.56 -780.27)"/></g><circle class="cls-10" cx="2362.69" cy="1136.88" r="118.42"/><g class="cls-6"><path class="cls-2" d="M2865.67,1917.16a118.43,118.43,0,1,1-232.3-32.57,118.46,118.46,0,0,0,227.76,0A118.52,118.52,0,0,1,2865.67,1917.16Z" transform="translate(-384.56 -780.27)"/></g><path class="cls-8" d="M2747.25,2051.3c-74,0-134.16-60.18-134.16-134.15S2673.27,1783,2747.25,1783s134.15,60.18,134.15,134.16S2821.22,2051.3,2747.25,2051.3Zm0-236.83a102.68,102.68,0,1,0,102.68,102.68A102.8,102.8,0,0,0,2747.25,1814.47Z" transform="translate(-384.56 -780.27)"/><path d="M2736.68,1944.89s92.13-229.76,47.19-405.72a161.78,161.78,0,0,0-104.51-112.88" transform="translate(-384.56 -780.27)"/><path class="cls-8" d="M2736.68,1960.62a15.74,15.74,0,0,1-14.6-21.59c.9-2.25,89.66-227.14,46.55-396a145.58,145.58,0,0,0-94.36-101.88,15.73,15.73,0,1,1,10.18-29.77,176.91,176.91,0,0,1,114.67,123.87c45.68,178.87-44,405.89-47.83,415.46A15.74,15.74,0,0,1,2736.68,1960.62Z" transform="translate(-384.56 -780.27)"/><g class="cls-6"><path class="cls-2" d="M2455.85,2191.66v114.71a733.26,733.26,0,0,1-75.86,3.8c-51.77,0-101-5-145.71-15.33V2191.66Z" transform="translate(-384.56 -780.27)"/></g><path class="cls-10" d="M2744.32,2006.25c0,178-164.44,254.14-367.26,254.14s-367.26-76.14-367.26-254.14c0-42.09,25.19-179.51,40.76-260.45a384.6,384.6,0,0,1,23.23-76.68,363.81,363.81,0,0,1,51.34-86.36c29.74-37,67.82-69.94,109.37-69.94h285.12c41.55,0,79.63,32.91,109.37,69.94,37.94,47.29,63.1,103.52,74.57,163,.49,2.53,1,5.08,1.48,7.72C2720.66,1835.2,2744.32,1965.47,2744.32,2006.25Z" transform="translate(-384.56 -780.27)"/><path d="M2150.14,1775c-10.42,5.43-21.25-6.59-14.72-16.36,14.1-21.06,36.94-43.48,71.41-47.15,58.9-6.27,82.87,22,71.74,40.7-7.36,12.34-44.69,1.68-74.21,5.4C2183.22,1760.2,2164.68,1767.39,2150.14,1775Z" transform="translate(-384.56 -780.27)"/><path d="M2604.34,1778.21c9.94,5.17,20.27-6.29,14-15.61-13.44-20.08-35.23-41.47-68.1-45-56.18-6-79,21-68.41,38.82,7,11.77,42.61,1.6,70.77,5.15A154.65,154.65,0,0,1,2604.34,1778.21Z" transform="translate(-384.56 -780.27)"/><g class="cls-6"><path class="cls-2" d="M2747.25,2006.25c0,178-164.43,254.14-367.26,254.14s-367.25-76.14-367.25-254.14c0-5.09.37-11.53,1-19.11,14.14,161,172.72,230.28,366.23,230.28s352.06-69.29,366.21-230.26C2746.88,1994.75,2747.25,2001.19,2747.25,2006.25Z" transform="translate(-384.56 -780.27)"/></g><path class="cls-8" d="M2380,2276.14c-54.52,0-105.09-5.38-150.29-16h0c-150.06-35.06-232.7-125.23-232.7-253.9,0-12.83,2.06-33.63,6.29-63.58,8.42-59.7,23.54-141.63,34.75-199.84,12.12-62.89,39-121.66,77.75-169.95,40.42-50.3,81.35-75.8,121.64-75.8h285.13c40.29,0,81.21,25.5,121.62,75.79,38.76,48.3,65.64,107.07,77.77,169.95,11.2,58.23,26.33,140.16,34.74,199.86,4.23,29.93,6.29,50.73,6.29,63.57,0,128.67-82.64,218.84-232.7,253.9C2485.09,2270.76,2434.52,2276.14,2380,2276.14Zm-142.56-747.58c-37.72,0-73.62,34.83-97.1,64-35.55,44.3-60.23,98.31-71.39,156.19s-26.17,139.23-34.49,198.29c-4,28.09-6,48-6,59.18,0,144.28,113.33,201,208.39,223.26h0c42.85,10.05,91,15.14,143.11,15.14s100.27-5.09,143.12-15.14c95.08-22.22,208.4-79,208.4-223.26,0-11.2-2-31.1-6-59.17-8.32-59.06-23.35-140.44-34.49-198.31s-35.84-111.88-71.39-156.19c-23.47-29.2-59.38-64-97.09-64Z" transform="translate(-384.56 -780.27)"/><g class="cls-6"><path class="cls-2" d="M2460,1678.89c-4.34,19.51,20,42.49,35.9,52.43a10.75,10.75,0,0,1-4,19.76c-64.56,10.06-277.29,14.74-415.14-82a364.14,364.14,0,0,1,51.34-86.36c29.74-37,67.82-69.94,109.37-69.94h285.12c41.55,0,79.64,32.91,109.37,69.94,37.94,47.29,63.1,103.52,74.58,163,.48,2.53,1,5.08,1.47,7.72C2593.55,1782.86,2462.21,1668.67,2460,1678.89Z" transform="translate(-384.56 -780.27)"/></g><path d="M2076.19,1426.29s230.8-343.18,498.38-128.06c177.12,142.39,240.51,138,240.51,138s50.59,211.85-100.29,258.52c-115.95,35.87-252.51-83.14-254.83-72.72-4.34,19.54,20,42.51,35.89,52.42a10.76,10.76,0,0,1-4,19.77c-69.91,10.89-313.64,15.51-447.78-108.15Z" transform="translate(-384.56 -780.27)"/><path class="cls-2" d="M2668.72,1717.21c-58.25,0-115.87-26-156.73-48.66a26.54,26.54,0,0,1-17.72,41.27c-75.29,11.73-321.54,16.3-460.87-112.13a15.74,15.74,0,0,1,21.33-23.14c124.41,114.68,347.39,113.82,422.15,105.79-17.8-14-37.69-37.34-32.28-61.67a16.55,16.55,0,0,1,9.65-11.62c9.52-4,16.2,0,38.38,13.6,44.57,27.24,137.31,83.94,217.51,59.11,116.79-36.12,99.06-187.24,91.74-229.07-28.31-5.2-99.7-29.69-237.17-140.2-66.91-53.79-137.18-75.54-208.85-64.65-153.43,23.32-265.49,187.58-266.61,189.23a15.73,15.73,0,1,1-26.11-17.56c4.86-7.23,121-177.41,288-202.78,80.76-12.27,159.24,11.69,233.3,71.23,165.82,133.31,229,134.6,230,134.6h0l13.28-.91,2.64,13c18.68,78.23,19.54,236.85-110.94,277.21A171.06,171.06,0,0,1,2668.72,1717.21Z" transform="translate(-384.56 -780.27)"/><path class="cls-8" d="M2891.32,2885.28H2687.5a15.74,15.74,0,1,1,0-31.48h203.82a15.74,15.74,0,0,1,0,31.48Z" transform="translate(-384.56 -780.27)"/><g class="cls-7"><path class="cls-5" d="M2822.36,1533.05c-2.13-31-7.3-52.7-7.3-52.7s-63.35,4.34-240.48-138c-25.53-20.53-50.75-36-75.43-47.12,3.78,5,5.85,10.37,5.85,15.94,0,27-48.39,48.87-108.08,48.87s-108.09-21.87-108.09-48.87c0-8.75,5.08-17,14-24.09-53.41,18.58-100.07,51.21-137,83.84-56.21,49.75-89.63,99.48-89.63,99.48-79-27.35-122,11-135.47,63.81a329.45,329.45,0,0,0-9.2,63.25c-2-39.62.37-78.16,9.2-112.72,13.49-52.82,56.43-91.16,135.47-63.81,0,0,33.42-49.73,89.63-99.48,91.41-80.88,243-161.79,408.74-28.57,177.13,142.39,240.48,138,240.48,138S2826.37,1478.19,2822.36,1533.05Z" transform="translate(-384.56 -780.27)"/></g><path class="cls-8" d="M2018.88,1960.62a15.74,15.74,0,0,1-14.41-9.38c-5.11-11.59-124.72-285.86-79-465,8.63-33.78,26.86-59,52.72-72.92,25.5-13.73,56.33-15.54,91.78-5.45,27.69-37.66,134.94-170.89,281.13-193.11,80.76-12.27,159.24,11.69,233.3,71.23,165.83,133.32,229,134.6,230,134.6h0l13.28-.91,2.64,13c18.68,78.23,19.54,236.85-110.94,277.21-73.93,22.86-154.67-12.08-207.45-41.28a26.54,26.54,0,0,1-17.72,41.27c-75.29,11.73-321.54,16.3-460.87-112.13a15.74,15.74,0,0,1,21.33-23.14c124.41,114.68,347.39,113.82,422.15,105.79-17.8-14-37.69-37.34-32.28-61.67a16.55,16.55,0,0,1,9.65-11.62c9.52-4,16.2,0,38.38,13.6,44.57,27.24,137.31,83.94,217.51,59.11,116.79-36.12,99.06-187.24,91.74-229.07-28.31-5.2-99.7-29.69-237.17-140.2-66.87-53.75-137.09-75.52-208.71-64.67-153.22,23.2-265.63,187.6-266.75,189.26l-6.77,10-11.43-3.95c-31.59-10.93-57.8-11-77.91-.16-22.62,12.17-32.69,35.54-37.14,53-43.06,168.6,76.06,441.8,77.27,444.53a15.74,15.74,0,0,1-14.39,22.09Z" transform="translate(-384.56 -780.27)"/><rect class="cls-11" x="1501.54" y="2277.81" width="918.84" height="61.48" rx="30.74"/><g class="cls-6"><path class="cls-2" d="M2804.92,3088.82a30.75,30.75,0,0,1-30.72,30.72H1916.83a30.74,30.74,0,0,1-30.72-30.72,30.41,30.41,0,0,1,4.13-15.38,30.61,30.61,0,0,0,26.59,15.38H2774.2a30.46,30.46,0,0,0,21.72-9,29.8,29.8,0,0,0,4.87-6.37A30.31,30.31,0,0,1,2804.92,3088.82Z" transform="translate(-384.56 -780.27)"/></g><path class="cls-8" d="M2774.2,3135.29H1916.84a46.48,46.48,0,1,1,0-92.95H2774.2a46.48,46.48,0,0,1,0,92.95Zm-857.36-61.48a15,15,0,1,0,0,30H2774.2a15,15,0,0,0,0-30Z" transform="translate(-384.56 -780.27)"/><path class="cls-11" d="M2785.93,3058.08H1905.11a21.33,21.33,0,0,1-21.18-18.89l-54.84-478.37a30.45,30.45,0,0,1,30.25-33.92H2831.7a30.45,30.45,0,0,1,30.25,33.92l-54.85,478.37A21.31,21.31,0,0,1,2785.93,3058.08Z" transform="translate(-384.56 -780.27)"/><g class="cls-6"><path class="cls-2" d="M2861.94,2560.8l-54.84,478.4a21.32,21.32,0,0,1-21.16,18.87H1905.1a21.32,21.32,0,0,1-21.17-18.87l-5.54-48.33h875.7a21.28,21.28,0,0,0,21.16-18.88l51.07-445.08h5.39A30.43,30.43,0,0,1,2861.94,2560.8Z" transform="translate(-384.56 -780.27)"/></g><g class="cls-7"><path class="cls-5" d="M2858.41,2560.8l-3.17,27.5a30.35,30.35,0,0,0-27.07-16.54H1855.79a30.37,30.37,0,0,0-27.07,16.54l-3.16-27.5a30.43,30.43,0,0,1,30.23-33.89h972.38A30.44,30.44,0,0,1,2858.41,2560.8Z" transform="translate(-384.56 -780.27)"/></g><path class="cls-8" d="M2785.93,3073.81H1905.11A37,37,0,0,1,1868.3,3041l-54.84-478.37a46.18,46.18,0,0,1,45.88-51.45H2831.7a46.18,46.18,0,0,1,45.88,51.45L2822.74,3041A37,37,0,0,1,2785.93,3073.81Zm-926.59-531.17a14.7,14.7,0,0,0-14.62,16.38l54.85,478.38a5.57,5.57,0,0,0,5.54,4.94h880.82a5.58,5.58,0,0,0,5.54-4.94L2846.32,2559a14.7,14.7,0,0,0-14.62-16.38Z" transform="translate(-384.56 -780.27)"/><ellipse class="cls-10" cx="1363.39" cy="2256.82" rx="50.74" ry="59.53"/><path class="cls-8" d="M1748,3112.36c-36.66,0-66.48-33.77-66.48-75.27s29.82-75.27,66.48-75.27,66.47,33.76,66.47,75.27S1784.6,3112.36,1748,3112.36Zm0-119.07c-19.3,0-35,19.65-35,43.8s15.71,43.79,35,43.79,35-19.64,35-43.79S1767.25,2993.29,1748,2993.29Z" transform="translate(-384.56 -780.27)"/><path class="cls-12" d="M1212.56,2187.06h0A129.92,129.92,0,0,1,1342.48,2317v0a21.92,21.92,0,0,1-21.92,21.92h-216a21.91,21.91,0,0,1-21.91-21.91v0a129.92,129.92,0,0,1,129.92-129.92Z"/><path class="cls-8" d="M1705.13,3134.91h-216a37.69,37.69,0,0,1-37.65-37.65c0-80.32,65.34-145.66,145.66-145.66s145.66,65.34,145.66,145.66A37.69,37.69,0,0,1,1705.13,3134.91Zm-108-151.84a114.31,114.31,0,0,0-114.19,114.19,6.18,6.18,0,0,0,6.18,6.17h216a6.18,6.18,0,0,0,6.18-6.17A114.32,114.32,0,0,0,1597.12,2983.07Z" transform="translate(-384.56 -780.27)"/><path class="cls-10" d="M1406.74,3057.87c10.7,11.53,42.08,36.23,107.86,1.87s143.9-42.13,169.3-44c40.2-3,72.14-22.2,61.88-69.48-10.17-46.91-71.71-90.55-159.12-88.79C1409.41,2861,1367.11,3015.16,1406.74,3057.87Z" transform="translate(-384.56 -780.27)"/><g class="cls-1"><path class="cls-2" d="M1745.78,2946.2c-2.7-12.45-9.06-24.67-18.53-35.88-3.76,29.89-30.84,42.91-63.36,45.37-25.39,1.92-103.51,9.7-169.29,44-55.11,28.79-86.06,16.12-100.95,4.47-2.25,22.55,2.42,42.15,13.09,53.66s42.08,36.23,107.86,1.87,143.9-42.13,169.29-44C1724.1,3012.65,1756,2993.48,1745.78,2946.2Z" transform="translate(-384.56 -780.27)"/></g><g class="cls-7"><path class="cls-5" d="M1601.66,2892.42c67.89-1.37,120.15,24.66,144.89,58.32-.25-1.51-.43-3-.77-4.54-10.17-46.9-71.71-90.54-159.12-88.78-177.26,3.59-219.55,157.74-179.92,200.45.55.58,1.16,1.22,1.82,1.87C1402.18,2998.68,1456.9,2895.35,1601.66,2892.42Z" transform="translate(-384.56 -780.27)"/></g><path class="cls-8" d="M1454.13,3092.9c-31.57,0-50.43-15.18-58.92-24.33-21.5-23.17-23.82-67.3-5.78-109.82,30.3-71.42,103.91-115.18,196.91-117.06,99.88-2,163.58,49.37,174.82,101.18,5.06,23.33,1.81,43-9.67,58.34-13,17.44-36,27.87-66.41,30.17-28.89,2.19-102.63,10.68-163.19,42.31C1494.78,3087.85,1472.34,3092.9,1454.13,3092.9Zm-35.86-45.74c18.2,19.61,49.82,19.13,89-1.36,63.38-33.11,137.09-42.91,175.39-45.8,20.79-1.57,36.26-7.82,43.56-17.6,5.79-7.77,7.18-18.83,4.14-32.86-8.31-38.27-61.35-78-143.43-76.38-118.9,2.4-159.1,75.53-168.58,97.89-14.58,34.35-11.1,64.29-.13,76.11Z" transform="translate(-384.56 -780.27)"/><path class="cls-8" d="M1636.31,2908.58a130.91,130.91,0,0,1,20.21,22.83,159.36,159.36,0,0,1,15.25,26.89c4.1,9.63,7.51,19.91,8.93,30.83,1.21,10.94.61,22.58-3.22,33.54a15.25,15.25,0,0,1-29.65-4.91v-1.69c0-8,.25-15.75,0-24.07-.54-8.28-1-17-2.29-25.87-2.73-17.79-7.46-36.18-12.81-55.14l0-.1a2.25,2.25,0,0,1,3.64-2.31Z" transform="translate(-384.56 -780.27)"/><path class="cls-8" d="M1556.61,2925.12a244.15,244.15,0,0,1,17.38,23.5c5.28,8.09,10.26,16.34,14.87,24.79a233.83,233.83,0,0,1,12.58,26c3.49,9,6.45,18.25,7.75,28.06a15.38,15.38,0,0,1-29,8.87l-.13-.29a169.19,169.19,0,0,1-9.76-25.71c-2.77-8.81-4.83-17.94-7-27.09-4.27-18.32-8.3-36.91-10.66-56.37a2.27,2.27,0,0,1,2-2.53A2.32,2.32,0,0,1,1556.61,2925.12Z" transform="translate(-384.56 -780.27)"/><path class="cls-8" d="M1478.85,2970.78a182.36,182.36,0,0,1,18.27,17.7c5.6,6.24,10.94,12.68,15.92,19.38a170.49,170.49,0,0,1,13.77,21c3.92,7.41,7.34,15.2,9.11,23.77a15.43,15.43,0,0,1-28,11.67l-.29-.44a126.67,126.67,0,0,1-10.63-20.7c-3.12-7.2-5.62-14.81-8.22-22.44-5.16-15.31-10.19-30.92-13.68-47.64a2.29,2.29,0,0,1,1.77-2.73A2.32,2.32,0,0,1,1478.85,2970.78Z" transform="translate(-384.56 -780.27)"/><path class="cls-8" d="M1592.55,3134.91a15.74,15.74,0,0,1-15.73-15.74v-82.08a15.74,15.74,0,1,1,31.47,0v82.08A15.74,15.74,0,0,1,1592.55,3134.91Z" transform="translate(-384.56 -780.27)"/><ellipse cx="2218.48" cy="1926.51" rx="72.45" ry="93.92" transform="translate(-555.04 -564.3) rotate(-5.37)"/><ellipse class="cls-5" cx="2241.66" cy="1905.15" rx="19.42" ry="32.39" transform="translate(-588.93 -509.61) rotate(-6.61)"/><path class="cls-5" d="M2196.18,1955.2c.26,8.94-3.88,16.13-9.25,16s-9.93-7.39-10.19-16.34,3.88-16.12,9.25-16S2195.92,1946.26,2196.18,1955.2Z" transform="translate(-384.56 -780.27)"/><ellipse cx="2548.2" cy="1926.51" rx="93.92" ry="72.45" transform="translate(7.22 3503.06) rotate(-84.63)"/><ellipse class="cls-5" cx="2525.01" cy="1905.15" rx="32.39" ry="19.42" transform="translate(-42.65 3413.83) rotate(-83.39)"/><path class="cls-5" d="M2570.49,1955.2c-.26,8.94,3.88,16.13,9.25,16s9.93-7.39,10.19-16.34-3.88-16.12-9.25-16S2570.75,1946.26,2570.49,1955.2Z" transform="translate(-384.56 -780.27)"/><path class="cls-13" d="M2287.33,2077.75a98.15,98.15,0,0,0,18.78,57.7c14.54,19.79,37.55,33.93,69,33.93,26,0,49.89-14.06,66.16-34.15,13.44-16.53,21.64-37.2,21.64-57.48,0-22-9.48-22.3-24.86-16.88-5.69,1.94-12.21,4.76-19.35,7.49-12.82,4.94-27.68,9.79-43.59,9.79-16.7,0-32.31-5.2-45.57-10.27-7.36-2.82-14.06-5.55-19.75-7.36C2295.8,2056.16,2287.33,2057.48,2287.33,2077.75Z" transform="translate(-384.56 -780.27)"/><path class="cls-14" d="M2307.44,2071.64c0,16.82,15.56,33.47,38.14,35.6s34,2.13,56.56,0c25.58-2.42,42.17-23.45,37.33-42.28a27.33,27.33,0,0,0-1.38-4.09c-5.71,2-12.22,4.78-19.36,7.49-12.84,4.95-27.7,9.79-43.6,9.79-16.71,0-32.32-5.19-45.57-10.25-7.37-2.83-14-5.59-19.75-7.38a27.59,27.59,0,0,0-1.5,4.44A26.06,26.06,0,0,0,2307.44,2071.64Z" transform="translate(-384.56 -780.27)"/><path class="cls-15" d="M2306.11,2135.45c14.54,19.79,37.55,33.93,69,33.93,26,0,49.89-14.06,66.16-34.15-11.46-7.32-45.8-17-61.35-4-4.85,4.1-6,11.9-6,11.9s-1.19-7.8-6.08-11.9C2352.08,2118.08,2317.22,2128.09,2306.11,2135.45Z" transform="translate(-384.56 -780.27)"/><path class="cls-8" d="M2375.13,2171.15c-37.17,0-58.82-18.84-70.45-34.65a1.79,1.79,0,0,1,.45-2.53c11.13-7.37,47.27-17.93,63.82-4.07a18.66,18.66,0,0,1,4.94,7.08,18.73,18.73,0,0,1,4.9-7.07c16.4-13.74,51.91-3.54,63.45,3.83a1.77,1.77,0,0,1,.42,2.6C2424.76,2158.47,2400.15,2171.15,2375.13,2171.15Zm-66.44-35.21c11.4,14.81,31.95,31.68,66.44,31.68,23.34,0,46.37-11.61,63.47-31.92-12.13-6.65-43.42-14.92-57.53-3.08-4.26,3.6-5.41,10.73-5.42,10.81-.27,1.73-3.23,1.73-3.5,0,0-.07-1.16-7.21-5.47-10.81C2352.73,2120.93,2321.11,2128.83,2308.69,2135.94Z" transform="translate(-384.56 -780.27)"/><path class="cls-8" d="M2375.13,2179c-63.27,0-97.41-52.17-97.41-101.26,0-7.88,1-19.07,9.24-25.16,7.85-5.77,17.87-3.69,25.72-1.24,4.53,1.42,9.48,3.36,14.73,5.41l5.59,2.16c13.06,5,27.2,9.62,42.13,9.62,14.47,0,28.41-4.62,40.14-9.15,2.9-1.1,5.64-2.19,8.27-3.25,4.08-1.63,7.9-3.15,11.42-4.36,9.18-3.23,19.73-5.76,28,.07,8.6,6.09,9.59,17.7,9.59,25.9C2472.53,2125.54,2430.88,2179,2375.13,2179Zm-76.93-110.82c.07.07-1.24,2.15-1.24,9.56,0,39.76,27.39,82,78.17,82,44,0,78.16-44.09,78.16-82,0-8.38-1.57-10.28-1.59-10.3s-2.24-.38-10.42,2.5c-3.32,1.14-6.84,2.55-10.6,4.06-2.73,1.09-5.58,2.23-8.54,3.35-13.33,5.14-29.38,10.42-47,10.42-18.1,0-34.93-5.51-49-10.89l-5.71-2.21c-4.94-1.93-9.6-3.75-13.49-5C2300.48,2067.68,2298.52,2068.08,2298.2,2068.18Z" transform="translate(-384.56 -780.27)"/><g class="cls-1"><path class="cls-2" d="M1772.37,2993.81s8.48,75-53.44,43.28l8.11,30.12,11.15,29.41,28.59-7.81,23.14-18.28,7.93-44.28-5.08-17.05Z" transform="translate(-384.56 -780.27)"/></g><path d="M530,3123.05c61.25-9.06,122.5-11.23,183.75-12.34,61.25-1.26,122.5-.59,183.75.09l91.88.55,91.87,0H3102.5l91.88,0,45.93-.42,45.94-.73q45.95-.55,91.87,1.68c30.63,1.89,61.26,4.55,91.88,11.17a6,6,0,0,1,0,11.66c-30.62,6.62-61.25,9.28-91.88,11.17q-45.93,2.2-91.87,1.68l-45.94-.73-45.93-.42-91.88,0H1081.25l-91.87,0-91.88.54c-61.25.69-122.5,1.35-183.75.1s-122.5-3.29-183.75-12.35a5.89,5.89,0,0,1,0-11.66Z" transform="translate(-384.56 -780.27)"/><rect class="cls-16" x="2466.9" y="171.86" width="280.35" height="152.61" rx="53.86"/><path d="M3077.94,966.44a39.55,39.55,0,0,1,39.55,39.55v44.88a39.55,39.55,0,0,1-39.55,39.55H2905.32a39.55,39.55,0,0,1-39.55-39.55V1006a39.55,39.55,0,0,1,39.55-39.55h172.62m0-28.64H2905.32a68.26,68.26,0,0,0-68.18,68.19v44.88a68.25,68.25,0,0,0,68.18,68.18h172.62a68.25,68.25,0,0,0,68.18-68.18V1006a68.26,68.26,0,0,0-68.18-68.19Z" transform="translate(-384.56 -780.27)"/><g class="cls-7"><path class="cls-5" d="M2886.23,1063.15v-44.89a39.55,39.55,0,0,1,39.54-39.55H3098.4a39.37,39.37,0,0,1,9.14,1.11,39.43,39.43,0,0,0-29.6-13.38H2905.32a39.55,39.55,0,0,0-39.55,39.54v44.89a39.53,39.53,0,0,0,30.41,38.44A39.35,39.35,0,0,1,2886.23,1063.15Z" transform="translate(-384.56 -780.27)"/></g><g class="cls-6"><path class="cls-2" d="M3077.94,966.44h-36.82a39.55,39.55,0,0,1,39.55,39.54v44.89a39.55,39.55,0,0,1-39.55,39.55h36.82a39.55,39.55,0,0,0,39.55-39.55V1006A39.55,39.55,0,0,0,3077.94,966.44Z" transform="translate(-384.56 -780.27)"/></g><rect class="cls-16" x="2328.89" y="15.07" width="280.35" height="152.61" rx="53.86"/><path d="M2939.94,809.65a39.55,39.55,0,0,1,39.54,39.55v44.88a39.55,39.55,0,0,1-39.54,39.55H2767.32a39.55,39.55,0,0,1-39.55-39.55V849.2a39.55,39.55,0,0,1,39.55-39.55h172.62m0-28.63H2767.32a68.26,68.26,0,0,0-68.19,68.18v44.88a68.26,68.26,0,0,0,68.19,68.18h172.62a68.26,68.26,0,0,0,68.18-68.18V849.2A68.26,68.26,0,0,0,2939.94,781Z" transform="translate(-384.56 -780.27)"/><g class="cls-7"><path class="cls-5" d="M2752.32,910.45V865.56A39.55,39.55,0,0,1,2791.86,826h172.62a39.73,39.73,0,0,1,8.07.83,39.51,39.51,0,0,0-32.61-17.19H2767.32a39.55,39.55,0,0,0-39.55,39.55v44.88a39.55,39.55,0,0,0,31.48,38.72A39.32,39.32,0,0,1,2752.32,910.45Z" transform="translate(-384.56 -780.27)"/></g><rect class="cls-16" x="2608.99" y="15.07" width="280.35" height="152.61" rx="53.86"/><path d="M3220,809.65a39.55,39.55,0,0,1,39.54,39.55v44.88A39.55,39.55,0,0,1,3220,933.63H3047.41a39.55,39.55,0,0,1-39.54-39.55V849.2a39.55,39.55,0,0,1,39.54-39.55H3220m0-28.63H3047.41a68.26,68.26,0,0,0-68.18,68.18v44.88a68.26,68.26,0,0,0,68.18,68.18H3220a68.26,68.26,0,0,0,68.18-68.18V849.2A68.26,68.26,0,0,0,3220,781Z" transform="translate(-384.56 -780.27)"/><g class="cls-7"><path class="cls-5" d="M3024.23,906.36V861.47a39.55,39.55,0,0,1,39.55-39.55H3236.4a39.28,39.28,0,0,1,14.7,2.86A39.44,39.44,0,0,0,3220,809.65H3047.41a39.55,39.55,0,0,0-39.54,39.55v44.88a39.53,39.53,0,0,0,24.84,36.69A39.34,39.34,0,0,1,3024.23,906.36Z" transform="translate(-384.56 -780.27)"/></g><g class="cls-6"><path class="cls-2" d="M2939.94,809.65h-36.82a39.55,39.55,0,0,1,39.55,39.55v44.88a39.55,39.55,0,0,1-39.55,39.55h36.82a39.55,39.55,0,0,0,39.54-39.55V849.2A39.55,39.55,0,0,0,2939.94,809.65Z" transform="translate(-384.56 -780.27)"/></g><g class="cls-6"><path class="cls-2" d="M3220,809.65h-36.82a39.55,39.55,0,0,1,39.54,39.55v44.88a39.55,39.55,0,0,1-39.54,39.55H3220a39.55,39.55,0,0,0,39.54-39.55V849.2A39.55,39.55,0,0,0,3220,809.65Z" transform="translate(-384.56 -780.27)"/></g><line x1="2257.3" y1="14.31" x2="2952.75" y2="14.31"/><path d="M3337.31,808.9H2641.86a14.32,14.32,0,1,1,0-28.63h695.45a14.32,14.32,0,1,1,0,28.63Z" transform="translate(-384.56 -780.27)"/><line x1="2997.75" y1="14.31" x2="3034.57" y2="14.31"/><path d="M3419.12,808.9h-36.81a14.32,14.32,0,1,1,0-28.63h36.81a14.32,14.32,0,1,1,0,28.63Z" transform="translate(-384.56 -780.27)"/><rect class="cls-16" x="346.95" y="400.66" width="289.12" height="156.93" rx="55.24"/><path d="M965.38,1195.25a40.93,40.93,0,0,1,40.93,40.92v46.45a40.93,40.93,0,0,1-40.93,40.92H786.75a40.93,40.93,0,0,1-40.93-40.92v-46.45a40.93,40.93,0,0,1,40.93-40.92H965.38m0-28.64H786.75a69.63,69.63,0,0,0-69.56,69.56v46.45a69.63,69.63,0,0,0,69.56,69.56H965.38a69.63,69.63,0,0,0,69.56-69.56v-46.45a69.63,69.63,0,0,0-69.56-69.56Z" transform="translate(-384.56 -780.27)"/><g class="cls-7"><path class="cls-5" d="M771.22,1299.55V1253.1a40.93,40.93,0,0,1,40.93-40.92H990.78a41.06,41.06,0,0,1,8.35.86,40.87,40.87,0,0,0-33.75-17.79H786.75a40.93,40.93,0,0,0-40.93,40.92v46.45a40.94,40.94,0,0,0,32.58,40.07A40.76,40.76,0,0,1,771.22,1299.55Z" transform="translate(-384.56 -780.27)"/></g><g class="cls-6"><path class="cls-2" d="M965.38,1195.25h-38.1a40.93,40.93,0,0,1,40.93,40.92v46.45a40.93,40.93,0,0,1-40.93,40.92h38.1a40.93,40.93,0,0,0,40.93-40.92v-46.45A40.93,40.93,0,0,0,965.38,1195.25Z" transform="translate(-384.56 -780.27)"/></g><rect class="cls-16" x="489.76" y="558.68" width="289.12" height="156.93" rx="55.24"/><path d="M1108.19,1353.26a40.92,40.92,0,0,1,40.93,40.93v46.45a40.92,40.92,0,0,1-40.93,40.92H929.56a40.92,40.92,0,0,1-40.92-40.92v-46.45a40.92,40.92,0,0,1,40.92-40.93h178.63m0-28.63H929.56A69.63,69.63,0,0,0,860,1394.19v46.45a69.63,69.63,0,0,0,69.56,69.55h178.63a69.63,69.63,0,0,0,69.56-69.55v-46.45a69.63,69.63,0,0,0-69.56-69.56Z" transform="translate(-384.56 -780.27)"/><g class="cls-7"><path class="cls-5" d="M914,1453.34v-46.45A40.92,40.92,0,0,1,955,1366H1133.6a40,40,0,0,1,4.4.25,40.76,40.76,0,0,0-29.81-13H929.56a40.92,40.92,0,0,0-40.92,40.93v46.45a40.91,40.91,0,0,0,36.51,40.67A40.74,40.74,0,0,1,914,1453.34Z" transform="translate(-384.56 -780.27)"/></g><g class="cls-6"><path class="cls-2" d="M1108.19,1353.26h-38.1a40.92,40.92,0,0,1,40.93,40.93v46.45a40.92,40.92,0,0,1-40.93,40.92h38.1a40.92,40.92,0,0,0,40.93-40.92v-46.45A40.92,40.92,0,0,0,1108.19,1353.26Z" transform="translate(-384.56 -780.27)"/></g><line class="cls-17" x1="272.36" y1="395.15" x2="691.47" y2="395.15"/><path d="M1076,1190.23H656.92a14.82,14.82,0,0,1,0-29.63H1076a14.82,14.82,0,0,1,0,29.63Z" transform="translate(-384.56 -780.27)"/><line class="cls-17" x1="763.43" y1="395.15" x2="826.94" y2="395.15"/><path d="M1209.5,1190.23H1146a14.82,14.82,0,0,1,0-29.63h63.51a14.82,14.82,0,0,1,0,29.63Z" transform="translate(-384.56 -780.27)"/><path class="cls-18" d="M1141.44,2802.73S1119,2764,1076,2751.13c-71.28-21.36-90.66,32.71-104,14s17-40.34,17.7-78.67-31.63-84-78.76-70.54-21.48,37.08-12,69.05-15.71,50.38-11.66,83,27.33,65.44,41.47,68.79S1141.44,2802.73,1141.44,2802.73Z" transform="translate(-384.56 -780.27)"/><path class="cls-2" d="M1143.43,2803.64l-1.76.33c-8.11,1.53-199,37.38-213.2,34-15.34-3.63-38.39-37.25-42.44-69.86-1.92-15.49,2.59-27.8,7-39.7,5-13.59,9.69-26.43,4.75-43.12a172,172,0,0,0-7.77-20.13c-5.63-13-10.5-24.14-6-33.62,3.43-7.28,11.92-12.64,26.7-16.88,23.39-6.7,40.68,1.42,51.06,9.41,18,13.82,29.76,38.89,29.31,62.37-.36,18.33-7.47,33.12-13.19,45-6.34,13.19-11.35,23.61-4.75,32.92,4.33,6.1,9.09,3.52,19.43-2.89,14.92-9.25,39.91-24.73,83.88-11.56,42.91,12.86,65.93,51.78,66.15,52.17ZM908.34,2618c-12,3.82-19.28,8.61-22.11,14.62-4,8.44.67,19.14,6.06,31.53a175.7,175.7,0,0,1,7.88,20.42c5.17,17.5.1,31.33-4.8,44.71-4.27,11.62-8.67,23.64-6.83,38.52,4.1,33.06,27.45,64.62,40.51,67.71,10.89,2.57,141.26-20.71,210.34-33.69-4.72-7.28-26.63-38.37-63.74-49.49-42.88-12.85-66.31,1.68-81.82,11.29-9.83,6.09-16.93,10.5-22.82,2.2-7.47-10.52-2.17-21.53,4.53-35.48,5.91-12.26,12.59-26.17,12.94-43.95.43-22.72-10.94-47-28.32-60.32-9.92-7.63-26.45-15.38-48.83-9C910.3,2617.4,909.31,2617.7,908.34,2618Z" transform="translate(-384.56 -780.27)"/><g class="cls-19"><path class="cls-5" d="M893.3,2629.42l5.61-6.49a82.15,82.15,0,0,1,12.38-4.53c47.13-13.49,79.5,32.21,78.76,70.54a80,80,0,0,1-4.48,24.44l-2.34.75s2.51-41.87-19.46-67.72c.38,2.4,0,4.55-1.45,6-3.21,3.17-10.1,1.41-15.39-3.94s-7-12.26-3.77-15.43a5.25,5.25,0,0,1,1.53-1C932.09,2626.28,915.4,2624.48,893.3,2629.42Z" transform="translate(-384.56 -780.27)"/></g><g class="cls-20"><path class="cls-2" d="M901.15,2682.12c-5.63-19.06-17-35.13-15.31-47.87.49,0,1-.27,1.47-.06,62.23,28.49,9.42,111.91,23.26,134.91s90.21,19,153.41,19.41c27.52.18,44.6,5.45,49.73-21.52a129.69,129.69,0,0,1,29.93,32.92s-198.54,37.36-212.68,34-37.43-36.15-41.48-68.79S910.61,2714.08,901.15,2682.12Z" transform="translate(-384.56 -780.27)"/></g><path class="cls-8" d="M1143.72,2809.89a6.84,6.84,0,0,1-.89.23c-46.94,8.83-201.23,37.39-215.8,33.94-19.33-4.57-43.15-42.5-47.21-75.17-2.1-17,2.89-30.61,7.3-42.63,4.82-13.13,9-24.48,4.62-39.19a168.88,168.88,0,0,0-7.5-19.41c-6-13.74-11.64-26.73-6-38.78,4.26-9,14-15.46,30.63-20.22,20.5-5.87,40.08-2.25,56.61,10.46,19.78,15.21,32.24,41.69,31.74,67.45-.38,19.69-7.82,35.16-13.8,47.59-6.41,13.33-9.56,20.57-5.29,26.59a5.75,5.75,0,0,0,.72.85c1.81-.18,6.7-3.2,10.31-5.43,15.82-9.81,42.3-26.22,89-12.24,45.27,13.56,68.79,53.33,69.77,55a7.51,7.51,0,0,1-4.22,10.94ZM910.18,2624c-10.12,3.22-16.27,7-18.3,11.32-2.77,5.88,1.36,15.37,6.15,26.36a185,185,0,0,1,8.14,21.14c5.76,19.49.32,34.31-4.93,48.64-4.19,11.43-8.15,22.22-6.49,35.6,3.91,31.54,26.12,60.12,35.74,62.39,11.21,1.58,122.87-17.93,198.08-31.94-9.07-11.56-27.66-31-54.72-39.16-40.18-12-62.17,1.59-76.72,10.62-9.77,6.05-21.93,13.59-31.22.5-9.61-13.53-3-27.27,4-41.81,5.62-11.69,12-24.94,12.31-41.36.4-20.83-10-43-25.87-55.24-8.78-6.76-23.42-13.61-43.3-7.92C912.06,2623.4,911.1,2623.69,910.18,2624Z" transform="translate(-384.56 -780.27)"/><circle class="cls-18" cx="1035.49" cy="2604.36" r="32.7" transform="translate(-2128.75 2182.31) rotate(-75.66)"/><path class="cls-2" d="M1045.78,2636.73a33.95,33.95,0,0,1-44-28.19h0a34,34,0,1,1,44,28.19Zm-41.48-28.5a31.43,31.43,0,1,0,27.32-35.06,31.47,31.47,0,0,0-27.32,35.06Z" transform="translate(-384.56 -780.27)"/><g class="cls-20"><path class="cls-2" d="M1063,2615.59l.1.11a32.65,32.65,0,0,1-60.28-9.83l4.3-8.58C1017.6,2637.18,1063,2615.59,1063,2615.59Z" transform="translate(-384.56 -780.27)"/></g><g class="cls-19"><path class="cls-5" d="M1035.73,2581.84c-6.42-1.55-14.32-2.09-24.06-1.08l.83-1.74a32.65,32.65,0,0,1,51.53,35.55l-.7-.05s.33-18.52-16.49-28.33a2.5,2.5,0,0,1,.05,1.12c-.48,2.2-4,3.3-7.86,2.46s-6.6-3.32-6.11-5.53A3.61,3.61,0,0,1,1035.73,2581.84Z" transform="translate(-384.56 -780.27)"/></g><path class="cls-8" d="M1047.22,2641.26a38.74,38.74,0,0,1-50.15-32.13h0a38.71,38.71,0,1,1,50.15,32.13ZM1009,2607.65a26.68,26.68,0,1,0,23.2-29.76,26.71,26.71,0,0,0-23.2,29.76Z" transform="translate(-384.56 -780.27)"/><path class="cls-18" d="M790.15,2621c-34.58,7.47-27.67,40.05-6.31,47s59.27,11.53,65.61,3.3S824.73,2613.55,790.15,2621Z" transform="translate(-384.56 -780.27)"/><path class="cls-2" d="M845,2675.43c-13.63,4.33-45-.76-61.57-6.17-11.39-3.73-19.24-14.61-18.66-25.86.29-5.53,3.31-18.93,25.1-23.62,21.4-4.63,42.94,12.2,54.78,30.93,4.86,7.68,8.93,17.34,5.79,21.42A10.86,10.86,0,0,1,845,2675.43Zm-59.1-52c-11.42,3.62-18.12,10.78-18.6,20.08-.53,10.13,6.59,19.94,16.92,23.33,22.9,7.5,58.85,10.7,64.22,3.72,1.54-2,0-9.17-5.93-18.52-11.37-18-31.9-34.17-52.11-29.81h0Q788.06,2622.76,785.91,2623.45Z" transform="translate(-384.56 -780.27)"/><g class="cls-20"><path class="cls-2" d="M768.52,2648.43l1.63-7.32c13.63,26,76.52,25,76.52,25l2.71-.27.46,4.5c-9,6.58-44.11,2.17-64.36-4.46A26.12,26.12,0,0,1,768.52,2648.43Z" transform="translate(-384.56 -780.27)"/></g><g class="cls-19"><path class="cls-5" d="M848,2670.53s-33.22-56.84-77.35-33.14c0,0,5.45-14.25,25.34-13.56S846.33,2654.27,848,2670.53Z" transform="translate(-384.56 -780.27)"/></g><path class="cls-8" d="M846.57,2679.78c-16.58,5.26-50.29-1.32-64.6-6-13.4-4.39-22.63-17.27-21.93-30.62.71-13.8,11.5-24.28,28.84-28,23.64-5.11,47.07,12.91,59.79,33,4.42,7,11,19.75,5.55,26.85C852.57,2677.17,849.92,2678.71,846.57,2679.78Zm-2.32-11.24ZM787.38,2628c-9.44,3-15,8.63-15.33,15.82-.41,7.9,5.46,15.88,13.66,18.56,22.08,7.23,52.73,9.39,58.57,5.64-.12-3.79-5.48-16.14-17.35-27.51-6.76-6.47-20.36-16.85-35.51-13.57h0C790,2627.2,788.65,2627.56,787.38,2628Z" transform="translate(-384.56 -780.27)"/><path class="cls-21" d="M1138.37,2962.81c-.75,49.66,38.28,90.52,87.18,91.26s89.15-38.91,89.9-88.58-38.28-90.52-87.18-91.26S1139.12,2913.15,1138.37,2962.81Zm40.89-.76c.42-27.84,22.11-50.08,48.44-49.68s47.33,23.29,46.91,51.12-22.11,50.08-48.44,49.68S1178.83,2989.88,1179.26,2962.05Z" transform="translate(-384.56 -780.27)"/><g class="cls-19"><path class="cls-5" d="M1290.26,3024.51c7.25-19.09,36.5-111.3-60.49-144.46l10.87-4c41.69,7.83,73,45.24,72.3,89.74A90.32,90.32,0,0,1,1290.26,3024.51Z" transform="translate(-384.56 -780.27)"/></g><g class="cls-20"><path class="cls-2" d="M1225.55,3054.07c-48.9-.74-87.93-41.6-87.18-91.26.74-48.63,39.36-87.65,86.88-88.55-.71,12.21-1.36,25.17-1.85,38.27-24.35,1.93-43.74,23.21-44.14,49.52-.42,27.62,20.27,50.35,46.32,51.08,2.36,16.29,6.29,26.82,12.44,27.47,10.5,1.11,29.14-3.69,48.92-10.4A87.47,87.47,0,0,1,1225.55,3054.07Z" transform="translate(-384.56 -780.27)"/></g><path d="M1256.14,3058.6a96.81,96.81,0,0,1-99.32-25.58,99,99,0,0,1-27.47-70.35h0c.83-54.56,45.26-98.28,99.06-97.46s96.89,45.86,96.06,100.42a99,99,0,0,1-29.58,69.48A96.85,96.85,0,0,1,1256.14,3058.6ZM1147.39,2963a81.1,81.1,0,0,0,22.47,57.6,78.57,78.57,0,0,0,112.36,1.71,81.12,81.12,0,0,0,24.21-56.9c.68-44.61-34.45-81.45-78.29-82.11s-80.07,35.09-80.75,79.7Zm96,56.7a54.54,54.54,0,0,1-17.35,2.54c-31.26-.47-56.29-27.52-55.79-60.28a60.48,60.48,0,0,1,17.06-41.59,54.91,54.91,0,0,1,80.53,1.22,61.48,61.48,0,0,1-1.27,83.68A56,56,0,0,1,1243.38,3019.65ZM1216,2923.09a38.15,38.15,0,0,0-15.75,9.83,42.56,42.56,0,0,0-11.94,29.26h0c-.35,22.82,16.71,41.64,38,42a37.17,37.17,0,0,0,27.34-11.53,43.45,43.45,0,0,0,.89-58.88,37.2,37.2,0,0,0-27-12.35A36.41,36.41,0,0,0,1216,2923.09Zm-36.71,39h0Z" transform="translate(-384.56 -780.27)"/><path class="cls-21" d="M974.77,3118.36l105.94,1.6a119.4,119.4,0,0,0,121.21-117.59l2.68-176.59a30.94,30.94,0,0,0-30.46-31.4l-282.88-4.28a30.92,30.92,0,0,0-31.4,30.46l-2.68,176.59A119.42,119.42,0,0,0,974.77,3118.36Z" transform="translate(-384.56 -780.27)"/><path class="cls-21" d="M1119,3115.62a120.2,120.2,0,0,1-38.26,5.61l-105.94-1.61a120.66,120.66,0,0,1-118.83-122.49l2.67-176.59a32.22,32.22,0,0,1,32.69-31.71l282.88,4.29a32.18,32.18,0,0,1,31.7,32.68l-2.67,176.59A120.91,120.91,0,0,1,1119,3115.62ZM881.78,2792.74a29.73,29.73,0,0,0-20.66,27.84l-2.68,176.59a118.15,118.15,0,0,0,116.35,119.92l105.94,1.61a118.12,118.12,0,0,0,119.93-116.35l2.67-176.59a29.67,29.67,0,0,0-29.21-30.11l-282.88-4.29A29.61,29.61,0,0,0,881.78,2792.74Z" transform="translate(-384.56 -780.27)"/><g class="cls-20"><path class="cls-2" d="M1203,2965.72l-7.51-15.51c-2.53,107.48-50,143.87-200,152.36-89.43,5.06-121.1-51.14-133.73-87.42l1.56,12a108.17,108.17,0,0,0,121.2,93.34l127.36-16.54a108.18,108.18,0,0,0,93.35-121.2Z" transform="translate(-384.56 -780.27)"/></g><path class="cls-22" d="M887.59,2790l290.21,4.4c15.06.23,27.13,9.7,27,21.16l-.34,22.84-344.75-5.22.35-22.85C860.18,2798.91,872.53,2789.81,887.59,2790Z" transform="translate(-384.56 -780.27)"/><g class="cls-6"><path class="cls-5" d="M915,2788.38,913.8,3021.9s3.64,73.68,36.07,91.62c0,0-51.35-15.6-59.07-77.79s.77-243.53.77-243.53Z" transform="translate(-384.56 -780.27)"/></g><path d="M1121.3,3123a128,128,0,0,1-40.72,6l-105.95-1.6A128.42,128.42,0,0,1,848.16,2997l2.67-176.59a40,40,0,0,1,40.56-39.35l282.89,4.29a40,40,0,0,1,39.34,40.56l-2.68,176.59A128.65,128.65,0,0,1,1121.3,3123ZM884.13,2800.14a21.94,21.94,0,0,0-15.25,20.55l-2.68,176.59a110.39,110.39,0,0,0,108.7,112h0l105.95,1.61a110.36,110.36,0,0,0,112.05-108.7l2.68-176.59A21.94,21.94,0,0,0,1174,2803.4l-282.88-4.28A21.8,21.8,0,0,0,884.13,2800.14Z" transform="translate(-384.56 -780.27)"/></svg>